# xmcd
#
# Track frame offsets:
#	150
#	13467
#	32862
#	57845
#	74302
#	95115
#	102797
#	128935
#	147155
#	162307
#	180410
#	192925
#	210795
#	229910
#	240415
#	258390
#	273202
#	292075
#	308300
#	324307
#
# Disc length: 4515 seconds
# Revision: 1
# Processed by: cddbd v1.5.2PL0 Copyright (c) Steve Scherf et al.
# Submitted via: dBpowerAMP V12.0
#
DISCID=1911a114
DTITLE=The Lost Gonzo Band - Dead Armadillos
DYEAR=1996
DGENRE=Country Rock
TTITLE0=Loose and on My Way
TTITLE1=Desperados
TTITLE2=Reality
TTITLE3=People Will Dance
TTITLE4=Railroad Man
TTITLE5=Take Advantage of Your Chances
TTITLE6=Those Were the Days
TTITLE7=Fool for a Tender Touch
TTITLE8=Write a Song
TTITLE9=Relief
TTITLE10=Wilderness Song
TTITLE11=Sweet Little Lily
TTITLE12=Life Is the Reason
TTITLE13=Dead Armadillo
TTITLE14=The Last Thing I Needed
TTITLE15=Life in the Pines
TTITLE16=Ain't No Way
TTITLE17=Sexy Thing
TTITLE18=Daddy's Money
TTITLE19=I'll Come Knockin'
EXTD=
EXTT0=
EXTT1=
EXTT2=
EXTT3=
EXTT4=
EXTT5=
EXTT6=
EXTT7=
EXTT8=
EXTT9=
EXTT10=
EXTT11=
EXTT12=
EXTT13=
EXTT14=
EXTT15=
EXTT16=
EXTT17=
EXTT18=
EXTT19=
PLAYORDER=
